<svg xmlns="http://www.w3.org/2000/svg" xmlns:xlink="http://www.w3.org/1999/xlink" width="1366" height="407" viewBox="0 0 1366 407"><defs><clipPath id="a"><rect width="1366" height="407" transform="translate(0 3633)" fill="#fff" stroke="#707070" stroke-width="1"/></clipPath><clipPath id="b"><rect width="405" height="405" fill="#fff"/></clipPath></defs><g transform="translate(0 -3633)" clip-path="url(#a)"><g transform="translate(539.8 3635)" opacity="0.22"><g transform="translate(421.2)"><g clip-path="url(#b)"><g transform="translate(-12.122 -15.358)"><g transform="translate(419.352 423.79)"><rect width="7.016" height="10.232" transform="matrix(0.949, -0.316, 0.316, 0.949, 0, 2.219)" fill="#fff"/></g><g transform="translate(312.85 423.25)"><path d="M648.363,302.522l-5.038-1.679-5.038,1.679-3.236-9.707,8.274-2.758,8.274,2.758Z" transform="translate(-635.051 -290.056)" fill="#fff"/></g><g transform="translate(206.348 423.25)"><path d="M572.629,302.522l-5.038-1.679-5.039,1.679-3.236-9.707,8.274-2.758,8.274,2.758Z" transform="translate(-559.316 -290.056)" fill="#fff"/></g><g transform="translate(99.846 423.25)"><path d="M496.894,302.522l-5.038-1.679-5.039,1.679-3.236-9.707,8.274-2.758,8.274,2.758Z" transform="translate(-483.581 -290.056)" fill="#fff"/></g><g transform="translate(0 423.79)"><rect width="10.232" height="7.016" transform="matrix(0.316, -0.949, 0.949, 0.316, 0, 9.707)" fill="#fff"/></g><g transform="translate(0 403.281)"><path d="M786.955,304.393,733.7,286.643l-53.251,17.75L627.2,286.643l-53.251,17.75L520.7,286.643l-53.251,17.75L412.58,286.1l3.236-9.707L467.449,293.6l53.251-17.75,53.251,17.75,53.251-17.75,53.251,17.75,53.251-17.75,53.251,17.75,51.633-17.2,3.236,9.707Z" transform="translate(-412.58 -275.856)" fill="#fff"/></g><g transform="translate(0 383.312)"><path d="M786.955,290.193,733.7,272.442l-53.251,17.75L627.2,272.442l-53.251,17.75L520.7,272.442l-53.251,17.75L412.58,271.9l3.236-9.707L467.449,279.4l53.251-17.75,53.251,17.75,53.251-17.75,53.251,17.75,53.251-17.75,53.251,17.75,51.633-17.2,3.236,9.707Z" transform="translate(-412.58 -261.656)" fill="#fff"/></g><g transform="translate(0 363.343)"><path d="M786.955,275.992,733.7,258.242l-53.251,17.75L627.2,258.242l-53.251,17.75L520.7,258.242l-53.251,17.75L412.58,257.7l3.235-9.7,51.633,17.211,53.251-17.75,53.251,17.75,53.251-17.75,53.251,17.75,53.251-17.75,53.251,17.75L838.588,248l3.236,9.707Z" transform="translate(-412.58 -247.456)" fill="#fff"/></g><g transform="translate(0 343.373)"><path d="M786.955,261.792,733.7,244.042l-53.251,17.75L627.2,244.042l-53.251,17.75L520.7,244.042l-53.251,17.75L412.58,243.5l3.236-9.707L467.449,251l53.251-17.75L573.951,251l53.251-17.75L680.453,251l53.251-17.75L786.955,251l51.633-17.211,3.236,9.707Z" transform="translate(-412.58 -233.255)" fill="#fff"/></g><g transform="translate(0 323.404)"><path d="M786.955,247.592,733.7,229.841l-53.251,17.75L627.2,229.841l-53.251,17.75L520.7,229.841l-53.251,17.75L412.58,229.3l3.236-9.707L467.449,236.8l53.251-17.75,53.251,17.75,53.251-17.75,53.251,17.75,53.251-17.75,53.251,17.75,51.633-17.211,3.236,9.707Z" transform="translate(-412.58 -219.055)" fill="#fff"/></g><g transform="translate(0 303.435)"><path d="M786.955,233.391,733.7,215.641l-53.251,17.75L627.2,215.641l-53.251,17.75L520.7,215.641l-53.251,17.75L412.58,215.1l3.236-9.707L467.449,222.6l53.251-17.75,53.251,17.75,53.251-17.75,53.251,17.75,53.251-17.75,53.251,17.75,51.633-17.211,3.236,9.707Z" transform="translate(-412.58 -204.855)" fill="#fff"/></g><g transform="translate(0 283.466)"><path d="M786.955,219.191,733.7,201.441l-53.251,17.75L627.2,201.441l-53.251,17.75L520.7,201.441l-53.251,17.75L412.58,200.9l3.236-9.707L467.449,208.4,520.7,190.65l53.251,17.75L627.2,190.65l53.251,17.75L733.7,190.65l53.251,17.75,51.633-17.211,3.236,9.707Z" transform="translate(-412.58 -190.655)" fill="#fff"/></g><g transform="translate(0 263.497)"><path d="M786.955,204.991,733.7,187.241l-53.251,17.75L627.2,187.241l-53.251,17.75L520.7,187.241l-53.251,17.75L412.58,186.7l3.236-9.707L467.449,194.2,520.7,176.45l53.251,17.75L627.2,176.45l53.251,17.75L733.7,176.45l53.251,17.75,51.633-17.211,3.236,9.707Z" transform="translate(-412.58 -176.454)" fill="#fff"/></g><g transform="translate(0 243.528)"><path d="M786.955,190.791,733.7,173.04l-53.251,17.75L627.2,173.04l-53.251,17.75L520.7,173.04l-53.251,17.75L412.58,172.5l3.236-9.707L467.449,180,520.7,162.25,573.951,180,627.2,162.25,680.453,180,733.7,162.25,786.955,180l51.633-17.211,3.236,9.707Z" transform="translate(-412.58 -162.254)" fill="#fff"/></g><g transform="translate(0 223.559)"><path d="M786.955,176.59,733.7,158.84l-53.251,17.75L627.2,158.84l-53.251,17.75L520.7,158.84l-53.251,17.75L412.58,158.3l3.236-9.707L467.449,165.8,520.7,148.05l53.251,17.75L627.2,148.05l53.251,17.75L733.7,148.05l53.251,17.75,51.633-17.211,3.236,9.707Z" transform="translate(-412.58 -148.054)" fill="#fff"/></g><g transform="translate(0 203.59)"><path d="M786.955,162.39,733.7,144.64l-53.251,17.75L627.2,144.64l-53.251,17.75L520.7,144.64l-53.251,17.75L412.58,144.1l3.236-9.707L467.449,151.6,520.7,133.85l53.251,17.75L627.2,133.85l53.251,17.75L733.7,133.85l53.251,17.75,51.633-17.211,3.236,9.707Z" transform="translate(-412.58 -133.854)" fill="#fff"/></g><g transform="translate(0 183.62)"><path d="M786.955,148.19,733.7,130.439l-53.251,17.75L627.2,130.439l-53.251,17.75L520.7,130.439l-53.251,17.75L412.58,129.9l3.236-9.707L467.449,137.4,520.7,119.65l53.251,17.75L627.2,119.65l53.251,17.75L733.7,119.65l53.251,17.75,51.633-17.211,3.236,9.707Z" transform="translate(-412.58 -119.653)" fill="#fff"/></g><g transform="translate(0 163.651)"><path d="M786.955,133.99,733.7,116.239l-53.251,17.75L627.2,116.239l-53.251,17.75L520.7,116.239l-53.251,17.75L412.58,115.7l3.236-9.707L467.449,123.2,520.7,105.45l53.251,17.75L627.2,105.45l53.251,17.75L733.7,105.45l53.251,17.75,51.633-17.211,3.236,9.707Z" transform="translate(-412.58 -105.453)" fill="#fff"/></g><g transform="translate(0 143.682)"><path d="M786.955,119.789,733.7,102.039l-53.251,17.75L627.2,102.039l-53.251,17.75L520.7,102.039l-53.251,17.75L412.58,101.5l3.236-9.707L467.449,109,520.7,91.253,573.951,109,627.2,91.253,680.453,109,733.7,91.253,786.955,109l51.633-17.211,3.236,9.707Z" transform="translate(-412.58 -91.253)" fill="#fff"/></g><g transform="translate(0 123.713)"><path d="M786.955,105.589,733.7,87.839l-53.251,17.75L627.2,87.839l-53.251,17.75L520.7,87.839l-53.251,17.75L412.58,87.3l3.236-9.707L467.449,94.8,520.7,77.052,573.951,94.8,627.2,77.052,680.453,94.8,733.7,77.052,786.955,94.8l51.633-17.211,3.236,9.707Z" transform="translate(-412.58 -77.052)" fill="#fff"/></g><g transform="translate(0 103.744)"><path d="M786.955,91.389,733.7,73.638l-53.251,17.75L627.2,73.638l-53.251,17.75L520.7,73.638l-53.251,17.75L412.58,73.1l3.236-9.707L467.449,80.6,520.7,62.852,573.951,80.6,627.2,62.852,680.453,80.6,733.7,62.852,786.955,80.6l51.633-17.211,3.236,9.707Z" transform="translate(-412.58 -62.852)" fill="#fff"/></g><g transform="translate(0 83.775)"><path d="M786.955,77.188,733.7,59.438l-53.251,17.75L627.2,59.438l-53.251,17.75L520.7,59.438l-53.251,17.75L412.58,58.9l3.236-9.707L467.449,66.4,520.7,48.652,573.951,66.4,627.2,48.652,680.453,66.4,733.7,48.652,786.955,66.4l51.633-17.211,3.236,9.707Z" transform="translate(-412.58 -48.652)" fill="#fff"/></g><g transform="translate(0 63.806)"><path d="M786.955,62.988,733.7,45.238l-53.251,17.75L627.2,45.238l-53.251,17.75L520.7,45.238l-53.251,17.75L412.58,44.7l3.236-9.707L467.449,52.2,520.7,34.452,573.951,52.2,627.2,34.452,680.453,52.2,733.7,34.452,786.955,52.2l51.633-17.211,3.236,9.707Z" transform="translate(-412.58 -34.452)" fill="#fff"/></g><g transform="translate(0 43.836)"><path d="M786.955,48.788,733.7,31.038l-53.251,17.75L627.2,31.038l-53.251,17.75L520.7,31.038l-53.251,17.75L412.58,30.5l3.236-9.707L467.449,38,520.7,20.251,573.951,38,627.2,20.251,680.453,38,733.7,20.251,786.955,38l51.633-17.211,3.236,9.707Z" transform="translate(-412.58 -20.251)" fill="#fff"/></g><g transform="translate(0 23.867)"><path d="M786.955,34.588,733.7,16.837l-53.251,17.75L627.2,16.837l-53.251,17.75L520.7,16.837l-53.251,17.75L412.58,16.3l3.236-9.707L467.449,23.8,520.7,6.051,573.951,23.8,627.2,6.051,680.453,23.8,733.7,6.051,786.955,23.8,838.588,6.59l3.236,9.707Z" transform="translate(-412.58 -6.051)" fill="#fff"/></g><g transform="translate(0 3.898)"><path d="M786.955,20.387,733.7,2.637l-53.251,17.75L627.2,2.637l-53.251,17.75L520.7,2.637l-53.251,17.75L412.58,2.1l3.236-9.707L467.449,9.6,520.7-8.149,573.951,9.6,627.2-8.149,680.453,9.6,733.7-8.149,786.955,9.6,838.588-7.61l3.236,9.71Z" transform="translate(-412.58 8.149)" fill="#fff"/></g><g transform="translate(366.101)"><path d="M681.193,1.544l-8.274-2.758,3.236-9.707,5.039,1.679,5.038-1.679,3.236,9.707Z" transform="translate(-672.918 10.921)" fill="#fff"/></g><g transform="translate(259.599)"><path d="M605.458,1.544l-8.274-2.758,3.236-9.707,5.039,1.679,5.038-1.679,3.236,9.707Z" transform="translate(-597.183 10.921)" fill="#fff"/></g><g transform="translate(153.097)"><path d="M529.723,1.544l-8.274-2.758,3.236-9.707,5.039,1.679,5.038-1.679L538-1.214Z" transform="translate(-521.449 10.921)" fill="#fff"/></g><g transform="translate(46.595)"><path d="M453.988,1.544l-8.274-2.758,3.236-9.707,5.038,1.679,5.039-1.679,3.236,9.707Z" transform="translate(-445.714 10.921)" fill="#fff"/></g></g></g></g></g><g transform="translate(134.8 3635)" opacity="0.22"><g transform="translate(421.2)"><g clip-path="url(#b)"><g transform="translate(-12.122 -15.358)"><g transform="translate(419.352 423.79)"><rect width="7.016" height="10.232" transform="matrix(0.949, -0.316, 0.316, 0.949, 0, 2.219)" fill="#fff"/></g><g transform="translate(312.85 423.25)"><path d="M648.363,302.522l-5.038-1.679-5.038,1.679-3.236-9.707,8.274-2.758,8.274,2.758Z" transform="translate(-635.051 -290.056)" fill="#fff"/></g><g transform="translate(206.348 423.25)"><path d="M572.629,302.522l-5.038-1.679-5.039,1.679-3.236-9.707,8.274-2.758,8.274,2.758Z" transform="translate(-559.316 -290.056)" fill="#fff"/></g><g transform="translate(99.846 423.25)"><path d="M496.894,302.522l-5.038-1.679-5.039,1.679-3.236-9.707,8.274-2.758,8.274,2.758Z" transform="translate(-483.581 -290.056)" fill="#fff"/></g><g transform="translate(0 423.79)"><rect width="10.232" height="7.016" transform="matrix(0.316, -0.949, 0.949, 0.316, 0, 9.707)" fill="#fff"/></g><g transform="translate(0 403.281)"><path d="M786.955,304.393,733.7,286.643l-53.251,17.75L627.2,286.643l-53.251,17.75L520.7,286.643l-53.251,17.75L412.58,286.1l3.236-9.707L467.449,293.6l53.251-17.75,53.251,17.75,53.251-17.75,53.251,17.75,53.251-17.75,53.251,17.75,51.633-17.2,3.236,9.707Z" transform="translate(-412.58 -275.856)" fill="#fff"/></g><g transform="translate(0 383.312)"><path d="M786.955,290.193,733.7,272.442l-53.251,17.75L627.2,272.442l-53.251,17.75L520.7,272.442l-53.251,17.75L412.58,271.9l3.236-9.707L467.449,279.4l53.251-17.75,53.251,17.75,53.251-17.75,53.251,17.75,53.251-17.75,53.251,17.75,51.633-17.2,3.236,9.707Z" transform="translate(-412.58 -261.656)" fill="#fff"/></g><g transform="translate(0 363.343)"><path d="M786.955,275.992,733.7,258.242l-53.251,17.75L627.2,258.242l-53.251,17.75L520.7,258.242l-53.251,17.75L412.58,257.7l3.235-9.7,51.633,17.211,53.251-17.75,53.251,17.75,53.251-17.75,53.251,17.75,53.251-17.75,53.251,17.75L838.588,248l3.236,9.707Z" transform="translate(-412.58 -247.456)" fill="#fff"/></g><g transform="translate(0 343.373)"><path d="M786.955,261.792,733.7,244.042l-53.251,17.75L627.2,244.042l-53.251,17.75L520.7,244.042l-53.251,17.75L412.58,243.5l3.236-9.707L467.449,251l53.251-17.75L573.951,251l53.251-17.75L680.453,251l53.251-17.75L786.955,251l51.633-17.211,3.236,9.707Z" transform="translate(-412.58 -233.255)" fill="#fff"/></g><g transform="translate(0 323.404)"><path d="M786.955,247.592,733.7,229.841l-53.251,17.75L627.2,229.841l-53.251,17.75L520.7,229.841l-53.251,17.75L412.58,229.3l3.236-9.707L467.449,236.8l53.251-17.75,53.251,17.75,53.251-17.75,53.251,17.75,53.251-17.75,53.251,17.75,51.633-17.211,3.236,9.707Z" transform="translate(-412.58 -219.055)" fill="#fff"/></g><g transform="translate(0 303.435)"><path d="M786.955,233.391,733.7,215.641l-53.251,17.75L627.2,215.641l-53.251,17.75L520.7,215.641l-53.251,17.75L412.58,215.1l3.236-9.707L467.449,222.6l53.251-17.75,53.251,17.75,53.251-17.75,53.251,17.75,53.251-17.75,53.251,17.75,51.633-17.211,3.236,9.707Z" transform="translate(-412.58 -204.855)" fill="#fff"/></g><g transform="translate(0 283.466)"><path d="M786.955,219.191,733.7,201.441l-53.251,17.75L627.2,201.441l-53.251,17.75L520.7,201.441l-53.251,17.75L412.58,200.9l3.236-9.707L467.449,208.4,520.7,190.65l53.251,17.75L627.2,190.65l53.251,17.75L733.7,190.65l53.251,17.75,51.633-17.211,3.236,9.707Z" transform="translate(-412.58 -190.655)" fill="#fff"/></g><g transform="translate(0 263.497)"><path d="M786.955,204.991,733.7,187.241l-53.251,17.75L627.2,187.241l-53.251,17.75L520.7,187.241l-53.251,17.75L412.58,186.7l3.236-9.707L467.449,194.2,520.7,176.45l53.251,17.75L627.2,176.45l53.251,17.75L733.7,176.45l53.251,17.75,51.633-17.211,3.236,9.707Z" transform="translate(-412.58 -176.454)" fill="#fff"/></g><g transform="translate(0 243.528)"><path d="M786.955,190.791,733.7,173.04l-53.251,17.75L627.2,173.04l-53.251,17.75L520.7,173.04l-53.251,17.75L412.58,172.5l3.236-9.707L467.449,180,520.7,162.25,573.951,180,627.2,162.25,680.453,180,733.7,162.25,786.955,180l51.633-17.211,3.236,9.707Z" transform="translate(-412.58 -162.254)" fill="#fff"/></g><g transform="translate(0 223.559)"><path d="M786.955,176.59,733.7,158.84l-53.251,17.75L627.2,158.84l-53.251,17.75L520.7,158.84l-53.251,17.75L412.58,158.3l3.236-9.707L467.449,165.8,520.7,148.05l53.251,17.75L627.2,148.05l53.251,17.75L733.7,148.05l53.251,17.75,51.633-17.211,3.236,9.707Z" transform="translate(-412.58 -148.054)" fill="#fff"/></g><g transform="translate(0 203.59)"><path d="M786.955,162.39,733.7,144.64l-53.251,17.75L627.2,144.64l-53.251,17.75L520.7,144.64l-53.251,17.75L412.58,144.1l3.236-9.707L467.449,151.6,520.7,133.85l53.251,17.75L627.2,133.85l53.251,17.75L733.7,133.85l53.251,17.75,51.633-17.211,3.236,9.707Z" transform="translate(-412.58 -133.854)" fill="#fff"/></g><g transform="translate(0 183.62)"><path d="M786.955,148.19,733.7,130.439l-53.251,17.75L627.2,130.439l-53.251,17.75L520.7,130.439l-53.251,17.75L412.58,129.9l3.236-9.707L467.449,137.4,520.7,119.65l53.251,17.75L627.2,119.65l53.251,17.75L733.7,119.65l53.251,17.75,51.633-17.211,3.236,9.707Z" transform="translate(-412.58 -119.653)" fill="#fff"/></g><g transform="translate(0 163.651)"><path d="M786.955,133.99,733.7,116.239l-53.251,17.75L627.2,116.239l-53.251,17.75L520.7,116.239l-53.251,17.75L412.58,115.7l3.236-9.707L467.449,123.2,520.7,105.45l53.251,17.75L627.2,105.45l53.251,17.75L733.7,105.45l53.251,17.75,51.633-17.211,3.236,9.707Z" transform="translate(-412.58 -105.453)" fill="#fff"/></g><g transform="translate(0 143.682)"><path d="M786.955,119.789,733.7,102.039l-53.251,17.75L627.2,102.039l-53.251,17.75L520.7,102.039l-53.251,17.75L412.58,101.5l3.236-9.707L467.449,109,520.7,91.253,573.951,109,627.2,91.253,680.453,109,733.7,91.253,786.955,109l51.633-17.211,3.236,9.707Z" transform="translate(-412.58 -91.253)" fill="#fff"/></g><g transform="translate(0 123.713)"><path d="M786.955,105.589,733.7,87.839l-53.251,17.75L627.2,87.839l-53.251,17.75L520.7,87.839l-53.251,17.75L412.58,87.3l3.236-9.707L467.449,94.8,520.7,77.052,573.951,94.8,627.2,77.052,680.453,94.8,733.7,77.052,786.955,94.8l51.633-17.211,3.236,9.707Z" transform="translate(-412.58 -77.052)" fill="#fff"/></g><g transform="translate(0 103.744)"><path d="M786.955,91.389,733.7,73.638l-53.251,17.75L627.2,73.638l-53.251,17.75L520.7,73.638l-53.251,17.75L412.58,73.1l3.236-9.707L467.449,80.6,520.7,62.852,573.951,80.6,627.2,62.852,680.453,80.6,733.7,62.852,786.955,80.6l51.633-17.211,3.236,9.707Z" transform="translate(-412.58 -62.852)" fill="#fff"/></g><g transform="translate(0 83.775)"><path d="M786.955,77.188,733.7,59.438l-53.251,17.75L627.2,59.438l-53.251,17.75L520.7,59.438l-53.251,17.75L412.58,58.9l3.236-9.707L467.449,66.4,520.7,48.652,573.951,66.4,627.2,48.652,680.453,66.4,733.7,48.652,786.955,66.4l51.633-17.211,3.236,9.707Z" transform="translate(-412.58 -48.652)" fill="#fff"/></g><g transform="translate(0 63.806)"><path d="M786.955,62.988,733.7,45.238l-53.251,17.75L627.2,45.238l-53.251,17.75L520.7,45.238l-53.251,17.75L412.58,44.7l3.236-9.707L467.449,52.2,520.7,34.452,573.951,52.2,627.2,34.452,680.453,52.2,733.7,34.452,786.955,52.2l51.633-17.211,3.236,9.707Z" transform="translate(-412.58 -34.452)" fill="#fff"/></g><g transform="translate(0 43.836)"><path d="M786.955,48.788,733.7,31.038l-53.251,17.75L627.2,31.038l-53.251,17.75L520.7,31.038l-53.251,17.75L412.58,30.5l3.236-9.707L467.449,38,520.7,20.251,573.951,38,627.2,20.251,680.453,38,733.7,20.251,786.955,38l51.633-17.211,3.236,9.707Z" transform="translate(-412.58 -20.251)" fill="#fff"/></g><g transform="translate(0 23.867)"><path d="M786.955,34.588,733.7,16.837l-53.251,17.75L627.2,16.837l-53.251,17.75L520.7,16.837l-53.251,17.75L412.58,16.3l3.236-9.707L467.449,23.8,520.7,6.051,573.951,23.8,627.2,6.051,680.453,23.8,733.7,6.051,786.955,23.8,838.588,6.59l3.236,9.707Z" transform="translate(-412.58 -6.051)" fill="#fff"/></g><g transform="translate(0 3.898)"><path d="M786.955,20.387,733.7,2.637l-53.251,17.75L627.2,2.637l-53.251,17.75L520.7,2.637l-53.251,17.75L412.58,2.1l3.236-9.707L467.449,9.6,520.7-8.149,573.951,9.6,627.2-8.149,680.453,9.6,733.7-8.149,786.955,9.6,838.588-7.61l3.236,9.71Z" transform="translate(-412.58 8.149)" fill="#fff"/></g><g transform="translate(366.101)"><path d="M681.193,1.544l-8.274-2.758,3.236-9.707,5.039,1.679,5.038-1.679,3.236,9.707Z" transform="translate(-672.918 10.921)" fill="#fff"/></g><g transform="translate(259.599)"><path d="M605.458,1.544l-8.274-2.758,3.236-9.707,5.039,1.679,5.038-1.679,3.236,9.707Z" transform="translate(-597.183 10.921)" fill="#fff"/></g><g transform="translate(153.097)"><path d="M529.723,1.544l-8.274-2.758,3.236-9.707,5.039,1.679,5.038-1.679L538-1.214Z" transform="translate(-521.449 10.921)" fill="#fff"/></g><g transform="translate(46.595)"><path d="M453.988,1.544l-8.274-2.758,3.236-9.707,5.038,1.679,5.039-1.679,3.236,9.707Z" transform="translate(-445.714 10.921)" fill="#fff"/></g></g></g></g></g><g transform="translate(-270.2 3635)" opacity="0.22"><g transform="translate(421.2)"><g clip-path="url(#b)"><g transform="translate(-12.122 -15.358)"><g transform="translate(419.352 423.79)"><rect width="7.016" height="10.232" transform="matrix(0.949, -0.316, 0.316, 0.949, 0, 2.219)" fill="#fff"/></g><g transform="translate(312.85 423.25)"><path d="M648.363,302.522l-5.038-1.679-5.038,1.679-3.236-9.707,8.274-2.758,8.274,2.758Z" transform="translate(-635.051 -290.056)" fill="#fff"/></g><g transform="translate(206.348 423.25)"><path d="M572.629,302.522l-5.038-1.679-5.039,1.679-3.236-9.707,8.274-2.758,8.274,2.758Z" transform="translate(-559.316 -290.056)" fill="#fff"/></g><g transform="translate(99.846 423.25)"><path d="M496.894,302.522l-5.038-1.679-5.039,1.679-3.236-9.707,8.274-2.758,8.274,2.758Z" transform="translate(-483.581 -290.056)" fill="#fff"/></g><g transform="translate(0 423.79)"><rect width="10.232" height="7.016" transform="matrix(0.316, -0.949, 0.949, 0.316, 0, 9.707)" fill="#fff"/></g><g transform="translate(0 403.281)"><path d="M786.955,304.393,733.7,286.643l-53.251,17.75L627.2,286.643l-53.251,17.75L520.7,286.643l-53.251,17.75L412.58,286.1l3.236-9.707L467.449,293.6l53.251-17.75,53.251,17.75,53.251-17.75,53.251,17.75,53.251-17.75,53.251,17.75,51.633-17.2,3.236,9.707Z" transform="translate(-412.58 -275.856)" fill="#fff"/></g><g transform="translate(0 383.312)"><path d="M786.955,290.193,733.7,272.442l-53.251,17.75L627.2,272.442l-53.251,17.75L520.7,272.442l-53.251,17.75L412.58,271.9l3.236-9.707L467.449,279.4l53.251-17.75,53.251,17.75,53.251-17.75,53.251,17.75,53.251-17.75,53.251,17.75,51.633-17.2,3.236,9.707Z" transform="translate(-412.58 -261.656)" fill="#fff"/></g><g transform="translate(0 363.343)"><path d="M786.955,275.992,733.7,258.242l-53.251,17.75L627.2,258.242l-53.251,17.75L520.7,258.242l-53.251,17.75L412.58,257.7l3.235-9.7,51.633,17.211,53.251-17.75,53.251,17.75,53.251-17.75,53.251,17.75,53.251-17.75,53.251,17.75L838.588,248l3.236,9.707Z" transform="translate(-412.58 -247.456)" fill="#fff"/></g><g transform="translate(0 343.373)"><path d="M786.955,261.792,733.7,244.042l-53.251,17.75L627.2,244.042l-53.251,17.75L520.7,244.042l-53.251,17.75L412.58,243.5l3.236-9.707L467.449,251l53.251-17.75L573.951,251l53.251-17.75L680.453,251l53.251-17.75L786.955,251l51.633-17.211,3.236,9.707Z" transform="translate(-412.58 -233.255)" fill="#fff"/></g><g transform="translate(0 323.404)"><path d="M786.955,247.592,733.7,229.841l-53.251,17.75L627.2,229.841l-53.251,17.75L520.7,229.841l-53.251,17.75L412.58,229.3l3.236-9.707L467.449,236.8l53.251-17.75,53.251,17.75,53.251-17.75,53.251,17.75,53.251-17.75,53.251,17.75,51.633-17.211,3.236,9.707Z" transform="translate(-412.58 -219.055)" fill="#fff"/></g><g transform="translate(0 303.435)"><path d="M786.955,233.391,733.7,215.641l-53.251,17.75L627.2,215.641l-53.251,17.75L520.7,215.641l-53.251,17.75L412.58,215.1l3.236-9.707L467.449,222.6l53.251-17.75,53.251,17.75,53.251-17.75,53.251,17.75,53.251-17.75,53.251,17.75,51.633-17.211,3.236,9.707Z" transform="translate(-412.58 -204.855)" fill="#fff"/></g><g transform="translate(0 283.466)"><path d="M786.955,219.191,733.7,201.441l-53.251,17.75L627.2,201.441l-53.251,17.75L520.7,201.441l-53.251,17.75L412.58,200.9l3.236-9.707L467.449,208.4,520.7,190.65l53.251,17.75L627.2,190.65l53.251,17.75L733.7,190.65l53.251,17.75,51.633-17.211,3.236,9.707Z" transform="translate(-412.58 -190.655)" fill="#fff"/></g><g transform="translate(0 263.497)"><path d="M786.955,204.991,733.7,187.241l-53.251,17.75L627.2,187.241l-53.251,17.75L520.7,187.241l-53.251,17.75L412.58,186.7l3.236-9.707L467.449,194.2,520.7,176.45l53.251,17.75L627.2,176.45l53.251,17.75L733.7,176.45l53.251,17.75,51.633-17.211,3.236,9.707Z" transform="translate(-412.58 -176.454)" fill="#fff"/></g><g transform="translate(0 243.528)"><path d="M786.955,190.791,733.7,173.04l-53.251,17.75L627.2,173.04l-53.251,17.75L520.7,173.04l-53.251,17.75L412.58,172.5l3.236-9.707L467.449,180,520.7,162.25,573.951,180,627.2,162.25,680.453,180,733.7,162.25,786.955,180l51.633-17.211,3.236,9.707Z" transform="translate(-412.58 -162.254)" fill="#fff"/></g><g transform="translate(0 223.559)"><path d="M786.955,176.59,733.7,158.84l-53.251,17.75L627.2,158.84l-53.251,17.75L520.7,158.84l-53.251,17.75L412.58,158.3l3.236-9.707L467.449,165.8,520.7,148.05l53.251,17.75L627.2,148.05l53.251,17.75L733.7,148.05l53.251,17.75,51.633-17.211,3.236,9.707Z" transform="translate(-412.58 -148.054)" fill="#fff"/></g><g transform="translate(0 203.59)"><path d="M786.955,162.39,733.7,144.64l-53.251,17.75L627.2,144.64l-53.251,17.75L520.7,144.64l-53.251,17.75L412.58,144.1l3.236-9.707L467.449,151.6,520.7,133.85l53.251,17.75L627.2,133.85l53.251,17.75L733.7,133.85l53.251,17.75,51.633-17.211,3.236,9.707Z" transform="translate(-412.58 -133.854)" fill="#fff"/></g><g transform="translate(0 183.62)"><path d="M786.955,148.19,733.7,130.439l-53.251,17.75L627.2,130.439l-53.251,17.75L520.7,130.439l-53.251,17.75L412.58,129.9l3.236-9.707L467.449,137.4,520.7,119.65l53.251,17.75L627.2,119.65l53.251,17.75L733.7,119.65l53.251,17.75,51.633-17.211,3.236,9.707Z" transform="translate(-412.58 -119.653)" fill="#fff"/></g><g transform="translate(0 163.651)"><path d="M786.955,133.99,733.7,116.239l-53.251,17.75L627.2,116.239l-53.251,17.75L520.7,116.239l-53.251,17.75L412.58,115.7l3.236-9.707L467.449,123.2,520.7,105.45l53.251,17.75L627.2,105.45l53.251,17.75L733.7,105.45l53.251,17.75,51.633-17.211,3.236,9.707Z" transform="translate(-412.58 -105.453)" fill="#fff"/></g><g transform="translate(0 143.682)"><path d="M786.955,119.789,733.7,102.039l-53.251,17.75L627.2,102.039l-53.251,17.75L520.7,102.039l-53.251,17.75L412.58,101.5l3.236-9.707L467.449,109,520.7,91.253,573.951,109,627.2,91.253,680.453,109,733.7,91.253,786.955,109l51.633-17.211,3.236,9.707Z" transform="translate(-412.58 -91.253)" fill="#fff"/></g><g transform="translate(0 123.713)"><path d="M786.955,105.589,733.7,87.839l-53.251,17.75L627.2,87.839l-53.251,17.75L520.7,87.839l-53.251,17.75L412.58,87.3l3.236-9.707L467.449,94.8,520.7,77.052,573.951,94.8,627.2,77.052,680.453,94.8,733.7,77.052,786.955,94.8l51.633-17.211,3.236,9.707Z" transform="translate(-412.58 -77.052)" fill="#fff"/></g><g transform="translate(0 103.744)"><path d="M786.955,91.389,733.7,73.638l-53.251,17.75L627.2,73.638l-53.251,17.75L520.7,73.638l-53.251,17.75L412.58,73.1l3.236-9.707L467.449,80.6,520.7,62.852,573.951,80.6,627.2,62.852,680.453,80.6,733.7,62.852,786.955,80.6l51.633-17.211,3.236,9.707Z" transform="translate(-412.58 -62.852)" fill="#fff"/></g><g transform="translate(0 83.775)"><path d="M786.955,77.188,733.7,59.438l-53.251,17.75L627.2,59.438l-53.251,17.75L520.7,59.438l-53.251,17.75L412.58,58.9l3.236-9.707L467.449,66.4,520.7,48.652,573.951,66.4,627.2,48.652,680.453,66.4,733.7,48.652,786.955,66.4l51.633-17.211,3.236,9.707Z" transform="translate(-412.58 -48.652)" fill="#fff"/></g><g transform="translate(0 63.806)"><path d="M786.955,62.988,733.7,45.238l-53.251,17.75L627.2,45.238l-53.251,17.75L520.7,45.238l-53.251,17.75L412.58,44.7l3.236-9.707L467.449,52.2,520.7,34.452,573.951,52.2,627.2,34.452,680.453,52.2,733.7,34.452,786.955,52.2l51.633-17.211,3.236,9.707Z" transform="translate(-412.58 -34.452)" fill="#fff"/></g><g transform="translate(0 43.836)"><path d="M786.955,48.788,733.7,31.038l-53.251,17.75L627.2,31.038l-53.251,17.75L520.7,31.038l-53.251,17.75L412.58,30.5l3.236-9.707L467.449,38,520.7,20.251,573.951,38,627.2,20.251,680.453,38,733.7,20.251,786.955,38l51.633-17.211,3.236,9.707Z" transform="translate(-412.58 -20.251)" fill="#fff"/></g><g transform="translate(0 23.867)"><path d="M786.955,34.588,733.7,16.837l-53.251,17.75L627.2,16.837l-53.251,17.75L520.7,16.837l-53.251,17.75L412.58,16.3l3.236-9.707L467.449,23.8,520.7,6.051,573.951,23.8,627.2,6.051,680.453,23.8,733.7,6.051,786.955,23.8,838.588,6.59l3.236,9.707Z" transform="translate(-412.58 -6.051)" fill="#fff"/></g><g transform="translate(0 3.898)"><path d="M786.955,20.387,733.7,2.637l-53.251,17.75L627.2,2.637l-53.251,17.75L520.7,2.637l-53.251,17.75L412.58,2.1l3.236-9.707L467.449,9.6,520.7-8.149,573.951,9.6,627.2-8.149,680.453,9.6,733.7-8.149,786.955,9.6,838.588-7.61l3.236,9.71Z" transform="translate(-412.58 8.149)" fill="#fff"/></g><g transform="translate(366.101)"><path d="M681.193,1.544l-8.274-2.758,3.236-9.707,5.039,1.679,5.038-1.679,3.236,9.707Z" transform="translate(-672.918 10.921)" fill="#fff"/></g><g transform="translate(259.599)"><path d="M605.458,1.544l-8.274-2.758,3.236-9.707,5.039,1.679,5.038-1.679,3.236,9.707Z" transform="translate(-597.183 10.921)" fill="#fff"/></g><g transform="translate(153.097)"><path d="M529.723,1.544l-8.274-2.758,3.236-9.707,5.039,1.679,5.038-1.679L538-1.214Z" transform="translate(-521.449 10.921)" fill="#fff"/></g><g transform="translate(46.595)"><path d="M453.988,1.544l-8.274-2.758,3.236-9.707,5.038,1.679,5.039-1.679,3.236,9.707Z" transform="translate(-445.714 10.921)" fill="#fff"/></g></g></g></g></g><g transform="translate(-675.2 3635)" opacity="0.22"><g transform="translate(421.2)"><g clip-path="url(#b)"><g transform="translate(-12.122 -15.358)"><g transform="translate(419.352 423.79)"><rect width="7.016" height="10.232" transform="matrix(0.949, -0.316, 0.316, 0.949, 0, 2.219)" fill="#fff"/></g><g transform="translate(312.85 423.25)"><path d="M648.363,302.522l-5.038-1.679-5.038,1.679-3.236-9.707,8.274-2.758,8.274,2.758Z" transform="translate(-635.051 -290.056)" fill="#fff"/></g><g transform="translate(206.348 423.25)"><path d="M572.629,302.522l-5.038-1.679-5.039,1.679-3.236-9.707,8.274-2.758,8.274,2.758Z" transform="translate(-559.316 -290.056)" fill="#fff"/></g><g transform="translate(99.846 423.25)"><path d="M496.894,302.522l-5.038-1.679-5.039,1.679-3.236-9.707,8.274-2.758,8.274,2.758Z" transform="translate(-483.581 -290.056)" fill="#fff"/></g><g transform="translate(0 423.79)"><rect width="10.232" height="7.016" transform="matrix(0.316, -0.949, 0.949, 0.316, 0, 9.707)" fill="#fff"/></g><g transform="translate(0 403.281)"><path d="M786.955,304.393,733.7,286.643l-53.251,17.75L627.2,286.643l-53.251,17.75L520.7,286.643l-53.251,17.75L412.58,286.1l3.236-9.707L467.449,293.6l53.251-17.75,53.251,17.75,53.251-17.75,53.251,17.75,53.251-17.75,53.251,17.75,51.633-17.2,3.236,9.707Z" transform="translate(-412.58 -275.856)" fill="#fff"/></g><g transform="translate(0 383.312)"><path d="M786.955,290.193,733.7,272.442l-53.251,17.75L627.2,272.442l-53.251,17.75L520.7,272.442l-53.251,17.75L412.58,271.9l3.236-9.707L467.449,279.4l53.251-17.75,53.251,17.75,53.251-17.75,53.251,17.75,53.251-17.75,53.251,17.75,51.633-17.2,3.236,9.707Z" transform="translate(-412.58 -261.656)" fill="#fff"/></g><g transform="translate(0 363.343)"><path d="M786.955,275.992,733.7,258.242l-53.251,17.75L627.2,258.242l-53.251,17.75L520.7,258.242l-53.251,17.75L412.58,257.7l3.235-9.7,51.633,17.211,53.251-17.75,53.251,17.75,53.251-17.75,53.251,17.75,53.251-17.75,53.251,17.75L838.588,248l3.236,9.707Z" transform="translate(-412.58 -247.456)" fill="#fff"/></g><g transform="translate(0 343.373)"><path d="M786.955,261.792,733.7,244.042l-53.251,17.75L627.2,244.042l-53.251,17.75L520.7,244.042l-53.251,17.75L412.58,243.5l3.236-9.707L467.449,251l53.251-17.75L573.951,251l53.251-17.75L680.453,251l53.251-17.75L786.955,251l51.633-17.211,3.236,9.707Z" transform="translate(-412.58 -233.255)" fill="#fff"/></g><g transform="translate(0 323.404)"><path d="M786.955,247.592,733.7,229.841l-53.251,17.75L627.2,229.841l-53.251,17.75L520.7,229.841l-53.251,17.75L412.58,229.3l3.236-9.707L467.449,236.8l53.251-17.75,53.251,17.75,53.251-17.75,53.251,17.75,53.251-17.75,53.251,17.75,51.633-17.211,3.236,9.707Z" transform="translate(-412.58 -219.055)" fill="#fff"/></g><g transform="translate(0 303.435)"><path d="M786.955,233.391,733.7,215.641l-53.251,17.75L627.2,215.641l-53.251,17.75L520.7,215.641l-53.251,17.75L412.58,215.1l3.236-9.707L467.449,222.6l53.251-17.75,53.251,17.75,53.251-17.75,53.251,17.75,53.251-17.75,53.251,17.75,51.633-17.211,3.236,9.707Z" transform="translate(-412.58 -204.855)" fill="#fff"/></g><g transform="translate(0 283.466)"><path d="M786.955,219.191,733.7,201.441l-53.251,17.75L627.2,201.441l-53.251,17.75L520.7,201.441l-53.251,17.75L412.58,200.9l3.236-9.707L467.449,208.4,520.7,190.65l53.251,17.75L627.2,190.65l53.251,17.75L733.7,190.65l53.251,17.75,51.633-17.211,3.236,9.707Z" transform="translate(-412.58 -190.655)" fill="#fff"/></g><g transform="translate(0 263.497)"><path d="M786.955,204.991,733.7,187.241l-53.251,17.75L627.2,187.241l-53.251,17.75L520.7,187.241l-53.251,17.75L412.58,186.7l3.236-9.707L467.449,194.2,520.7,176.45l53.251,17.75L627.2,176.45l53.251,17.75L733.7,176.45l53.251,17.75,51.633-17.211,3.236,9.707Z" transform="translate(-412.58 -176.454)" fill="#fff"/></g><g transform="translate(0 243.528)"><path d="M786.955,190.791,733.7,173.04l-53.251,17.75L627.2,173.04l-53.251,17.75L520.7,173.04l-53.251,17.75L412.58,172.5l3.236-9.707L467.449,180,520.7,162.25,573.951,180,627.2,162.25,680.453,180,733.7,162.25,786.955,180l51.633-17.211,3.236,9.707Z" transform="translate(-412.58 -162.254)" fill="#fff"/></g><g transform="translate(0 223.559)"><path d="M786.955,176.59,733.7,158.84l-53.251,17.75L627.2,158.84l-53.251,17.75L520.7,158.84l-53.251,17.75L412.58,158.3l3.236-9.707L467.449,165.8,520.7,148.05l53.251,17.75L627.2,148.05l53.251,17.75L733.7,148.05l53.251,17.75,51.633-17.211,3.236,9.707Z" transform="translate(-412.58 -148.054)" fill="#fff"/></g><g transform="translate(0 203.59)"><path d="M786.955,162.39,733.7,144.64l-53.251,17.75L627.2,144.64l-53.251,17.75L520.7,144.64l-53.251,17.75L412.58,144.1l3.236-9.707L467.449,151.6,520.7,133.85l53.251,17.75L627.2,133.85l53.251,17.75L733.7,133.85l53.251,17.75,51.633-17.211,3.236,9.707Z" transform="translate(-412.58 -133.854)" fill="#fff"/></g><g transform="translate(0 183.62)"><path d="M786.955,148.19,733.7,130.439l-53.251,17.75L627.2,130.439l-53.251,17.75L520.7,130.439l-53.251,17.75L412.58,129.9l3.236-9.707L467.449,137.4,520.7,119.65l53.251,17.75L627.2,119.65l53.251,17.75L733.7,119.65l53.251,17.75,51.633-17.211,3.236,9.707Z" transform="translate(-412.58 -119.653)" fill="#fff"/></g><g transform="translate(0 163.651)"><path d="M786.955,133.99,733.7,116.239l-53.251,17.75L627.2,116.239l-53.251,17.75L520.7,116.239l-53.251,17.75L412.58,115.7l3.236-9.707L467.449,123.2,520.7,105.45l53.251,17.75L627.2,105.45l53.251,17.75L733.7,105.45l53.251,17.75,51.633-17.211,3.236,9.707Z" transform="translate(-412.58 -105.453)" fill="#fff"/></g><g transform="translate(0 143.682)"><path d="M786.955,119.789,733.7,102.039l-53.251,17.75L627.2,102.039l-53.251,17.75L520.7,102.039l-53.251,17.75L412.58,101.5l3.236-9.707L467.449,109,520.7,91.253,573.951,109,627.2,91.253,680.453,109,733.7,91.253,786.955,109l51.633-17.211,3.236,9.707Z" transform="translate(-412.58 -91.253)" fill="#fff"/></g><g transform="translate(0 123.713)"><path d="M786.955,105.589,733.7,87.839l-53.251,17.75L627.2,87.839l-53.251,17.75L520.7,87.839l-53.251,17.75L412.58,87.3l3.236-9.707L467.449,94.8,520.7,77.052,573.951,94.8,627.2,77.052,680.453,94.8,733.7,77.052,786.955,94.8l51.633-17.211,3.236,9.707Z" transform="translate(-412.58 -77.052)" fill="#fff"/></g><g transform="translate(0 103.744)"><path d="M786.955,91.389,733.7,73.638l-53.251,17.75L627.2,73.638l-53.251,17.75L520.7,73.638l-53.251,17.75L412.58,73.1l3.236-9.707L467.449,80.6,520.7,62.852,573.951,80.6,627.2,62.852,680.453,80.6,733.7,62.852,786.955,80.6l51.633-17.211,3.236,9.707Z" transform="translate(-412.58 -62.852)" fill="#fff"/></g><g transform="translate(0 83.775)"><path d="M786.955,77.188,733.7,59.438l-53.251,17.75L627.2,59.438l-53.251,17.75L520.7,59.438l-53.251,17.75L412.58,58.9l3.236-9.707L467.449,66.4,520.7,48.652,573.951,66.4,627.2,48.652,680.453,66.4,733.7,48.652,786.955,66.4l51.633-17.211,3.236,9.707Z" transform="translate(-412.58 -48.652)" fill="#fff"/></g><g transform="translate(0 63.806)"><path d="M786.955,62.988,733.7,45.238l-53.251,17.75L627.2,45.238l-53.251,17.75L520.7,45.238l-53.251,17.75L412.58,44.7l3.236-9.707L467.449,52.2,520.7,34.452,573.951,52.2,627.2,34.452,680.453,52.2,733.7,34.452,786.955,52.2l51.633-17.211,3.236,9.707Z" transform="translate(-412.58 -34.452)" fill="#fff"/></g><g transform="translate(0 43.836)"><path d="M786.955,48.788,733.7,31.038l-53.251,17.75L627.2,31.038l-53.251,17.75L520.7,31.038l-53.251,17.75L412.58,30.5l3.236-9.707L467.449,38,520.7,20.251,573.951,38,627.2,20.251,680.453,38,733.7,20.251,786.955,38l51.633-17.211,3.236,9.707Z" transform="translate(-412.58 -20.251)" fill="#fff"/></g><g transform="translate(0 23.867)"><path d="M786.955,34.588,733.7,16.837l-53.251,17.75L627.2,16.837l-53.251,17.75L520.7,16.837l-53.251,17.75L412.58,16.3l3.236-9.707L467.449,23.8,520.7,6.051,573.951,23.8,627.2,6.051,680.453,23.8,733.7,6.051,786.955,23.8,838.588,6.59l3.236,9.707Z" transform="translate(-412.58 -6.051)" fill="#fff"/></g><g transform="translate(0 3.898)"><path d="M786.955,20.387,733.7,2.637l-53.251,17.75L627.2,2.637l-53.251,17.75L520.7,2.637l-53.251,17.75L412.58,2.1l3.236-9.707L467.449,9.6,520.7-8.149,573.951,9.6,627.2-8.149,680.453,9.6,733.7-8.149,786.955,9.6,838.588-7.61l3.236,9.71Z" transform="translate(-412.58 8.149)" fill="#fff"/></g><g transform="translate(366.101)"><path d="M681.193,1.544l-8.274-2.758,3.236-9.707,5.039,1.679,5.038-1.679,3.236,9.707Z" transform="translate(-672.918 10.921)" fill="#fff"/></g><g transform="translate(259.599)"><path d="M605.458,1.544l-8.274-2.758,3.236-9.707,5.039,1.679,5.038-1.679,3.236,9.707Z" transform="translate(-597.183 10.921)" fill="#fff"/></g><g transform="translate(153.097)"><path d="M529.723,1.544l-8.274-2.758,3.236-9.707,5.039,1.679,5.038-1.679L538-1.214Z" transform="translate(-521.449 10.921)" fill="#fff"/></g><g transform="translate(46.595)"><path d="M453.988,1.544l-8.274-2.758,3.236-9.707,5.038,1.679,5.039-1.679,3.236,9.707Z" transform="translate(-445.714 10.921)" fill="#fff"/></g></g></g></g></g></g></svg>