<svg xmlns="http://www.w3.org/2000/svg" width="70.188" height="153.674" viewBox="0 0 70.188 153.674"><g transform="translate(-270.005 -273.255)"><g transform="translate(272.141 273.256)"><path d="M521.479,386.221a32.222,32.222,0,0,1-5.237,15.312c-8.372,12.674-22.229,14.649-24.292,14.9-1.935.072-17.247.424-27.97-12.05-11.906-13.841-7.42-31-7.044-32.352.272,1.791,2.031,12.37,11.738,18.878a25.486,25.486,0,0,0,11.634,4.19c5.317,7.6,14.888,11.842,23.924,9.763A22.653,22.653,0,0,0,521.479,386.221Z" transform="translate(-455.798 -311.706)" fill="#fff"/><path d="M527.621,381.744a22.653,22.653,0,0,1-17.247,18.647c-9.035,2.079-18.607-2.159-23.924-9.763.96.1,1.887.144,2.791.152a31.8,31.8,0,0,0,4.989-.384,30.071,30.071,0,0,0,6.924-1.911c2.247-.976,12.114-5.613,15.512-17.047,3.326-11.178-2.071-20.3-2.958-21.741a28.219,28.219,0,0,1,8.988,25.619,16.742,16.742,0,0,0,2.143-5.413,16.481,16.481,0,0,0,.2-5.309A38.718,38.718,0,0,1,527.621,381.744Z" transform="translate(-461.941 -307.229)" fill="#fff"/><path d="M507.576,370.189a12.619,12.619,0,0,1-4.318,9.427c-.432.392-.9.824-1.391,1.287-3.374,3.19-5.061,4.782-5.925,6.757a9.486,9.486,0,0,0-.736,3.854,15.069,15.069,0,0,0,1.183,5.541,13.061,13.061,0,0,1-6.173-5.157l-.12-.192a13.026,13.026,0,0,1-1.823-7.028,11.676,11.676,0,0,1,1.223-5.837,16.1,16.1,0,0,1,4.23-4.79c.6-.52,1.167-.983,1.7-1.383a7.218,7.218,0,0,0,2.847-5.277l.008-.056a10.882,10.882,0,0,0-.144-2.615,6.584,6.584,0,0,1,.984,1.359,6.772,6.772,0,0,1,.7,1.959,17.64,17.64,0,0,0,.208-13.777,47.318,47.318,0,0,1,4.83,7.62c1.631,3.238,2.543,5.085,2.7,7.644C507.56,369.749,507.568,369.973,507.576,370.189Z" transform="translate(-462.305 -308.143)" fill="#fff"/><path d="M481.8,378.153a26.06,26.06,0,0,1,.746-26.009,23.862,23.862,0,0,1,8.572-8.484,17.749,17.749,0,0,0,4.922-4.11,22.825,22.825,0,0,0,5.057-12.762,21.527,21.527,0,0,0-5.407-16.78,25.231,25.231,0,0,1-.652,7.644,23.981,23.981,0,0,0-10.814-21.068,21.808,21.808,0,0,1,.094,20.7,12.876,12.876,0,0,0-3.636-4.2,22.323,22.323,0,0,1,.56,5.779v.082a12.843,12.843,0,0,1-4.3,8.987,40.174,40.174,0,0,0-11.82,19.083c-.436,1.589-2.964,11.456,3.076,20.788A25.82,25.82,0,0,0,481.8,378.153Z" transform="translate(-457.487 -296.585)" fill="#fff"/></g><g transform="translate(270 391.065)"><path d="M370.815,145.057v-3a14.646,14.646,0,0,1-1.8,1.872,5.387,5.387,0,0,1-3.428,1.141c-1.287-.048-2.578-.011-3.961-.011v-3.033l-.148-.054a2.766,2.766,0,0,0-.409.448,5.384,5.384,0,0,1-3.074,2.351,7.31,7.31,0,0,1-2.6.28c-4.71.016-9.419,0-14.128,0a4.162,4.162,0,0,1-3.539-1.95,2.85,2.85,0,0,1-.426-1.536c-.029-5.543-.016-11.086-.017-16.629a3.508,3.508,0,0,1,2.35-3.233,10.508,10.508,0,0,1,1.434-.319c.585-.11.744.216.735.727-.016.947-.021,1.894-.021,2.842,0,2.923-.026,5.846.012,8.768.022,1.763.134,3.526.223,5.288a1.441,1.441,0,0,0,1.372,1.342q5.942.01,11.884-.023a1.7,1.7,0,0,0,1.338-1.078,4.354,4.354,0,0,0,.287-2.056c0-3.729.041-7.459-.034-11.186a4.437,4.437,0,0,1,1.086-3.122,3.787,3.787,0,0,1,2.963-1.527.546.546,0,0,1,.6.591c.04,1.747.072,3.493.081,5.24.022,4.112.029,8.224.042,12.336v.8c1.213,0,2.379.049,3.536-.034.285-.021.646-.424.782-.735a4.322,4.322,0,0,0,.4-1.623c.034-2.6.022-5.2-.007-7.8-.016-1.407-.146-2.813-.132-4.218a4.034,4.034,0,0,1,1.127-3c.92-.873,1.863-1.79,3.406-1.479.015.321.041.634.042.948q.031,8.4.057,16.81a2.154,2.154,0,0,0,.037.719c.065.174.281.406.438.413a16.249,16.249,0,0,0,2.6-.012c1.078-.129,1.6-.9,1.629-2.155.065-2.639.021-5.281.02-7.921,0-1.391.033-2.783-.013-4.172a4.664,4.664,0,0,1,1.961-3.9,3.147,3.147,0,0,1,2.01-.8.584.584,0,0,1,.671.6c.029.341.028.684.029,1.027q.035,8.676.063,17.354a4.6,4.6,0,0,1-2.842,4.14,7.508,7.508,0,0,1-3.5.583C372.947,145.031,371.941,145.057,370.815,145.057Z" transform="translate(-337.278 -121.311)" fill="#fff"/><path d="M439.88,137.8c-.3-.016-.539-.038-.777-.039q-4.031,0-8.062-.006a3.345,3.345,0,0,1-2.779-1.927,4.417,4.417,0,0,1-.343-1.414c-.031-2.62-.007-5.239-.01-7.859a4.944,4.944,0,0,1,1.361-3.577,8.31,8.31,0,0,1,2.116-1.284c1.181-.621,2.481-.378,3.73-.4,2.909-.044,5.82-.01,8.73-.016.5,0,.824.038.821.708-.031,5.924-.007,11.849-.043,17.774a4.666,4.666,0,0,1-1.759,4,6.515,6.515,0,0,1-4.55,1.221c-3.072-.018-6.143-.007-9.215-.012-.877,0-1.132-.293-1.031-1.173a3.761,3.761,0,0,1,1.472-2.813,3.351,3.351,0,0,1,1.691-.646c2.26-.077,4.525-.046,6.788-.039,1.421,0,1.868-.424,1.9-1.88C439.923,138.246,439.9,138.066,439.88,137.8Zm.066-8.968h.011v-2.175c0-.638-.189-.833-.824-.836q-1.756-.009-3.514,0c-1.965.016-3.032.935-3.174,2.882-.1,1.3-.031,2.617-.023,3.926,0,.453.291.63.717.616.158-.006.314-.036.472-.04,1.462-.038,2.927-.039,4.387-.12,1.441-.08,1.85-1.064,1.941-2.322.046-.635.007-1.282.007-1.927Z" transform="translate(-382.065 -121.27)" fill="#fff"/><path d="M470.886,121.535v22.65c0,.769-.089.88-.874.855-1.246-.038-2.491-.12-3.736-.167-.563-.021-.68-.318-.679-.829q.026-10.1.02-20.2c0-.6-.008-1.209-.018-1.814-.006-.355.136-.612.511-.613,1.5,0,2.99.011,4.485.024a1.29,1.29,0,0,1,.291.094Z" transform="translate(-400.693 -121.342)" fill="#fff"/><g transform="translate(0.141 29.716)"><path d="M340.881,184.173h.477v.577h-.549a1.15,1.15,0,0,1-1.07-.541,1.2,1.2,0,0,1-.86.328,1.228,1.228,0,0,1-1.012-.47,1.54,1.54,0,0,1-.311-.976,1.489,1.489,0,0,1,.426-1.111,1.2,1.2,0,0,1,.882-.363,1.182,1.182,0,0,1,.686.2v-.306l.629-.328v2.279a.625.625,0,0,0,.7.711Zm-1.33-1.7a.859.859,0,0,0-.658-.292.636.636,0,0,0-.52.253,1.179,1.179,0,0,0,0,1.321.646.646,0,0,0,.528.249.812.812,0,0,0,.665-.327c-.009-.085-.014-.152-.014-.2Zm-.932-1.752a.353.353,0,1,1,.334-.352.353.353,0,0,1-.334.352Zm.918,0a.353.353,0,1,1,.334-.352.353.353,0,0,1-.334.352Z" transform="translate(-337.557 -180.021)" fill="#fff"/><path d="M346.729,185.773h.477v.577h-.549a1.376,1.376,0,0,0-1.893,0h-.549v-.577h.477a.628.628,0,0,0,.708-.712v-1.474l.622-.327v1.8a.627.627,0,0,0,.707.713ZM345,187.062a.353.353,0,1,1-.354.356.314.314,0,0,1,.354-.356Zm.918,0a.353.353,0,1,1-.354.356.314.314,0,0,1,.356-.356Z" transform="translate(-340.847 -181.622)" fill="#fff"/><path d="M349.271,184.882v-.577h.383a.675.675,0,0,0,.752-.776v-2.912l.629-.328v3.247a1.249,1.249,0,0,1-1.33,1.346Z" transform="translate(-343.346 -180.154)" fill="#fff"/><path d="M357.024,186.031a1.863,1.863,0,0,1-.672.107,1.209,1.209,0,0,1-1.012-.477,1.864,1.864,0,0,1,.1-2.2,1.279,1.279,0,0,1,.968-.385,1.2,1.2,0,0,1,.947.377,1.273,1.273,0,0,1,.3.876v1.552a1.823,1.823,0,0,1-.427,1.275,1.389,1.389,0,0,1-1.076.442,1.8,1.8,0,0,1-.846-.207v-.541a1.632,1.632,0,0,0,.759.2.891.891,0,0,0,.679-.267,1.153,1.153,0,0,0,.28-.752Zm0-1.674q0-.712-.615-.712a.678.678,0,0,0-.567.264,1.137,1.137,0,0,0-.206.719,1.174,1.174,0,0,0,.2.716.637.637,0,0,0,.539.267.723.723,0,0,0,.65-.264Z" transform="translate(-346.192 -181.531)" fill="#fff"/><path d="M364.222,185.773h.477v.577h-.549a1.338,1.338,0,0,1-.636-.142,1.724,1.724,0,0,1-.5,1.125,1.378,1.378,0,0,1-1,.384,1.808,1.808,0,0,1-.846-.214v-.534a1.542,1.542,0,0,0,.737.2.9.9,0,0,0,.723-.306,1.269,1.269,0,0,0,.26-.848v-2.428l.622-.327v.007l.007-.007v1.94a.608.608,0,0,0,.705.573Z" transform="translate(-349.228 -181.622)" fill="#fff"/><path d="M369.8,184.291h.477v.577h-.549a1.376,1.376,0,0,0-1.893,0h-.549v-.577h.477a.628.628,0,0,0,.708-.712V182.1l.622-.327v1.8a.628.628,0,0,0,.707.713Zm-1.7-3.326a.352.352,0,1,1,.315-.35A.352.352,0,0,1,368.1,180.965Zm.925,0a.352.352,0,1,1,.315-.35A.352.352,0,0,1,369.02,180.965Z" transform="translate(-352.25 -180.14)" fill="#fff"/><path d="M374.859,185.773h.477v.577h-.549a1.376,1.376,0,0,0-1.893,0h-.549v-.577h.477a.627.627,0,0,0,.708-.712v-1.474l.622-.327v1.8a.627.627,0,0,0,.707.713Zm-1.062,1.289a.307.307,0,0,1,.346.349.372.372,0,1,1-.343-.349Z" transform="translate(-354.749 -181.622)" fill="#fff"/><path d="M377.4,184.882v-.577h.383a.676.676,0,0,0,.752-.776v-2.912l.629-.328v3.247a1.249,1.249,0,0,1-1.33,1.346Z" transform="translate(-357.248 -180.154)" fill="#fff"/><path d="M383.589,184.882v-4.265l.621-.328v4.593Z" transform="translate(-360.306 -180.154)" fill="#fff"/><path d="M392.761,185.446a1.148,1.148,0,0,1-.917-.384,1.292,1.292,0,0,1-.289-.876v-.861l.621-.328v1.133q0,.74.7.74h2.4q.7,0,.7-.74v-1.446l.621-.327v1.829a1.223,1.223,0,0,1-.383.962,1.275,1.275,0,0,1-.875.3Zm.73-3.311a.314.314,0,0,1-.354-.356.31.31,0,0,1,.354-.349.307.307,0,0,1,.346.349.31.31,0,0,1-.345.356Zm.917,0a.314.314,0,0,1-.354-.356.351.351,0,1,1,.354.356Z" transform="translate(-364.243 -180.717)" fill="#fff"/><path d="M405.2,184.882a1.2,1.2,0,0,1-.968-.4,1.3,1.3,0,0,1-.289-.869v-3l.622-.328v3.3a.628.628,0,0,0,.708.712h.477v.577Z" transform="translate(-370.364 -180.154)" fill="#fff"/><path d="M407.84,184.329a1.234,1.234,0,0,1,.376-.962,1.269,1.269,0,0,1,.867-.292,1.233,1.233,0,0,1,1.055.5,1.769,1.769,0,0,1,.318,1.1,1.7,1.7,0,0,1-.405,1.2,1.2,1.2,0,0,1-.925.384,1.3,1.3,0,0,1-.99-.356,1.24,1.24,0,0,1-.932.356h-.549v-.577h.477a.628.628,0,0,0,.708-.712Zm.622.691a.583.583,0,0,0,.657.662.614.614,0,0,0,.531-.271,1.288,1.288,0,0,0,.192-.755,1.212,1.212,0,0,0-.2-.745.661.661,0,0,0-.556-.267q-.621,0-.621.712Z" transform="translate(-371.705 -181.531)" fill="#fff"/><path d="M415.514,186.28l.3-.577H417.1a.507.507,0,0,0,.409-.143.775.775,0,0,0,.119-.491,1.53,1.53,0,0,0-.889-1.424l.318-.527a2.127,2.127,0,0,1,1.186,1.808.878.878,0,0,0,.191.595.765.765,0,0,0,.568.182h.426v.577h-.477a1.2,1.2,0,0,1-.939-.377.874.874,0,0,1-.8.377Z" transform="translate(-376.083 -181.552)" fill="#fff"/><path d="M427.112,184.242h.47v.577H427.1a2.744,2.744,0,0,1-.939-.132,1.68,1.68,0,0,1-.658-.466,3.783,3.783,0,0,1-2.124.6H422.4v-.577h.99a2.954,2.954,0,0,0,2.32-.954,1.721,1.721,0,0,0-1.46-1.09,1.774,1.774,0,0,0-1.207.613v-.57a1.813,1.813,0,0,1,1.286-.605,1.764,1.764,0,0,1,1.077.4,3.451,3.451,0,0,1,.918,1.129v.313a3.312,3.312,0,0,1-.426.449,1.9,1.9,0,0,0,1.214.313Zm-2.522-3.375a.353.353,0,1,1,.334-.352A.353.353,0,0,1,424.59,180.867Z" transform="translate(-379.487 -180.091)" fill="#fff"/><path d="M434.251,184.3h.477v.577h-.549a1.2,1.2,0,0,1-.962-.391,1.29,1.29,0,0,1-1,.391h-.434V184.3h.383a.675.675,0,0,0,.752-.776v-2.912l.629-.328v3.247a.867.867,0,0,0,.163.591.7.7,0,0,0,.541.178Z" transform="translate(-384.126 -180.154)" fill="#fff"/><path d="M436.744,184.882v-.577h.383a.675.675,0,0,0,.752-.776v-2.912l.629-.328v3.247a1.248,1.248,0,0,1-1.329,1.346Z" transform="translate(-386.575 -180.154)" fill="#fff"/><path d="M454.545,183.587l.629-.327v1.822a1.175,1.175,0,0,1-1.258,1.268h-.484a1.2,1.2,0,0,1-.939-.37,1.22,1.22,0,0,1-.947.37h-.477a1.337,1.337,0,0,1-.65-.15,1.566,1.566,0,0,1-.643,1.132,2.015,2.015,0,0,1-1.236.37,1.758,1.758,0,0,1-1.46-.655,1.875,1.875,0,0,1-.4-1.2,1.727,1.727,0,0,1,.3-1.026l.6-.127a1.973,1.973,0,0,0-.325,1.089,1.348,1.348,0,0,0,.375.983,1.221,1.221,0,0,0,.9.356,1.3,1.3,0,0,0,.983-.363,1.115,1.115,0,0,0,.289-.8v-1.9l.622-.328v1.324a.624.624,0,0,0,.7.712h.34a.625.625,0,0,0,.7-.712v-1.239l.629-.321v1.559a.624.624,0,0,0,.7.712h.34a.625.625,0,0,0,.7-.712Z" transform="translate(-391.487 -181.622)" fill="#fff"/><path d="M467.736,186.031a1.864,1.864,0,0,1-.673.107,1.21,1.21,0,0,1-1.012-.477,1.865,1.865,0,0,1,.1-2.2,1.279,1.279,0,0,1,.968-.385,1.2,1.2,0,0,1,.947.377,1.275,1.275,0,0,1,.3.876v1.552a1.826,1.826,0,0,1-.427,1.275,1.389,1.389,0,0,1-1.076.442,1.8,1.8,0,0,1-.846-.207v-.541a1.633,1.633,0,0,0,.759.2.891.891,0,0,0,.679-.267A1.156,1.156,0,0,0,467.736,186.031Zm0-1.674q0-.712-.615-.712a.678.678,0,0,0-.567.264,1.137,1.137,0,0,0-.206.719,1.174,1.174,0,0,0,.2.716.637.637,0,0,0,.538.267.723.723,0,0,0,.651-.264Z" transform="translate(-400.906 -181.531)" fill="#fff"/><path d="M473.484,184.882v-4.265l.622-.328v4.593Z" transform="translate(-404.732 -180.154)" fill="#fff"/></g></g></g></svg>