<svg xmlns="http://www.w3.org/2000/svg" width="9.744" height="15.512" viewBox="0 0 9.744 15.512"><g transform="translate(-585.103 -1168.686)"><path d="M465.524,374.137a4.77,4.77,0,0,1-.776,2.267,5.21,5.21,0,0,1-3.6,2.207,5.377,5.377,0,0,1-4.142-1.784,5.461,5.461,0,0,1-1.043-4.791,4.194,4.194,0,0,0,1.738,2.8,3.774,3.774,0,0,0,1.723.62,3.466,3.466,0,0,0,3.543,1.446A3.354,3.354,0,0,0,465.524,374.137Z" transform="translate(129.305 805.583)" fill="#fff"/><path d="M492.547,354.442a3.354,3.354,0,0,1-2.554,2.761,3.466,3.466,0,0,1-3.543-1.446c.142.014.279.021.413.023a4.712,4.712,0,0,0,.739-.057,4.454,4.454,0,0,0,1.025-.283,3.938,3.938,0,0,0,1.859-5.744,4.178,4.178,0,0,1,1.331,3.794,2.479,2.479,0,0,0,.317-.8,2.44,2.44,0,0,0,.03-.786A5.734,5.734,0,0,1,492.547,354.442Z" transform="translate(102.282 825.278)" fill="#fff"/><path d="M491.124,356.62a1.869,1.869,0,0,1-.639,1.4c-.064.058-.134.122-.206.191a3.533,3.533,0,0,0-.877,1,1.4,1.4,0,0,0-.109.571,2.23,2.23,0,0,0,.175.821,1.934,1.934,0,0,1-.914-.764l-.018-.028a1.929,1.929,0,0,1-.27-1.041,1.729,1.729,0,0,1,.181-.864,2.383,2.383,0,0,1,.626-.709c.089-.077.173-.146.251-.2a1.069,1.069,0,0,0,.422-.781V356.2a1.61,1.61,0,0,0-.021-.387.976.976,0,0,1,.146.2,1,1,0,0,1,.1.29,2.612,2.612,0,0,0,.031-2.04,7.015,7.015,0,0,1,.715,1.128,2.8,2.8,0,0,1,.4,1.132C491.122,356.555,491.123,356.588,491.124,356.62Z" transform="translate(100.683 821.254)" fill="#fff"/><path d="M466.826,308.664a3.859,3.859,0,0,1,.11-3.851,3.534,3.534,0,0,1,1.269-1.256,2.628,2.628,0,0,0,.729-.609,3.38,3.38,0,0,0,.749-1.89,3.188,3.188,0,0,0-.8-2.485,3.736,3.736,0,0,1-.1,1.132,3.551,3.551,0,0,0-1.6-3.12,3.229,3.229,0,0,1,.014,3.065,1.908,1.908,0,0,0-.538-.621,3.306,3.306,0,0,1,.083.856v.012a1.9,1.9,0,0,1-.637,1.331,5.95,5.95,0,0,0-1.75,2.826,3.92,3.92,0,0,0,.456,3.078A3.824,3.824,0,0,0,466.826,308.664Z" transform="translate(121.878 872.101)" fill="#fff"/></g></svg>