<svg xmlns="http://www.w3.org/2000/svg" width="26.022" height="41.426" viewBox="0 0 26.022 41.426"><g transform="translate(-585.103 -1168.686)"><path d="M481.773,377.646A12.742,12.742,0,0,1,479.7,383.7,13.915,13.915,0,0,1,470.1,389.6a14.36,14.36,0,0,1-11.062-4.766c-4.709-5.474-2.935-12.26-2.786-12.794a11.2,11.2,0,0,0,4.642,7.466,10.079,10.079,0,0,0,4.6,1.657,9.256,9.256,0,0,0,9.461,3.861A8.959,8.959,0,0,0,481.773,377.646Z" transform="translate(129.305 820.509)" fill="#d60011"/><path d="M502.732,362.37a8.959,8.959,0,0,1-6.821,7.374,9.256,9.256,0,0,1-9.461-3.861c.379.038.746.057,1.1.06a12.572,12.572,0,0,0,1.973-.152,11.893,11.893,0,0,0,2.739-.756,10.516,10.516,0,0,0,4.965-15.34,11.16,11.16,0,0,1,3.554,10.132,6.621,6.621,0,0,0,.848-2.141,6.517,6.517,0,0,0,.079-2.1A15.312,15.312,0,0,1,502.732,362.37Z" transform="translate(108.346 835.785)" fill="#d60011"/><path d="M495.9,360.56a4.991,4.991,0,0,1-1.708,3.728c-.171.155-.357.326-.55.509a9.437,9.437,0,0,0-2.343,2.672,3.751,3.751,0,0,0-.291,1.524,5.959,5.959,0,0,0,.468,2.191,5.165,5.165,0,0,1-2.441-2.04l-.047-.076a5.152,5.152,0,0,1-.721-2.78,4.617,4.617,0,0,1,.484-2.308,6.365,6.365,0,0,1,1.673-1.894c.237-.206.462-.389.67-.547a2.855,2.855,0,0,0,1.126-2.087l0-.022a4.3,4.3,0,0,0-.057-1.034,2.6,2.6,0,0,1,.389.538,2.676,2.676,0,0,1,.275.775,6.976,6.976,0,0,0,.082-5.448,18.721,18.721,0,0,1,1.91,3.014,7.473,7.473,0,0,1,1.069,3.023C495.9,360.386,495.9,360.475,495.9,360.56Z" transform="translate(107.105 832.663)" fill="#d60011"/><path d="M471.176,328.843a10.306,10.306,0,0,1,.3-10.286,9.438,9.438,0,0,1,3.39-3.355,7.02,7.02,0,0,0,1.947-1.625,9.027,9.027,0,0,0,2-5.047,8.514,8.514,0,0,0-2.138-6.636,9.978,9.978,0,0,1-.258,3.023,9.484,9.484,0,0,0-4.277-8.332,8.624,8.624,0,0,1,.037,8.184,5.093,5.093,0,0,0-1.438-1.659,8.828,8.828,0,0,1,.221,2.286v.033a5.079,5.079,0,0,1-1.7,3.554,15.889,15.889,0,0,0-4.674,7.547,10.468,10.468,0,0,0,1.217,8.221A10.212,10.212,0,0,0,471.176,328.843Z" transform="translate(123.544 872.101)" fill="#d60011"/></g></svg>