<svg xmlns="http://www.w3.org/2000/svg" xmlns:xlink="http://www.w3.org/1999/xlink" width="125" height="236" viewBox="0 0 125 236"><defs><clipPath id="a"><rect width="125" height="236" rx="22" transform="translate(352 2354)" fill="#fff"/></clipPath></defs><g transform="translate(-352 -2354)" clip-path="url(#a)"><g transform="translate(-263.831 1218.432)"><path d="M598.612,402.879a70.063,70.063,0,0,1-11.388,33.295c-18.2,27.557-48.334,31.852-52.82,32.408-4.208.156-37.5.922-60.817-26.2-25.888-30.1-16.134-67.407-15.317-70.345.591,3.894,4.416,26.9,25.523,41.049a55.418,55.418,0,0,0,25.3,9.11c11.562,16.534,32.373,25.749,52.02,21.229A49.256,49.256,0,0,0,598.612,402.879Z" transform="translate(129.305 927.831)" fill="#f7f7f7"/><path d="M575.972,419.38a49.255,49.255,0,0,1-37.5,40.545c-19.647,4.52-40.458-4.694-52.02-21.229,2.086.209,4.1.313,6.068.33a69.138,69.138,0,0,0,10.849-.835,65.39,65.39,0,0,0,15.057-4.155c4.886-2.121,26.34-12.205,33.729-37.068,7.233-24.306-4.5-44.144-6.433-47.273A61.358,61.358,0,0,1,565.262,405.4a36.4,36.4,0,0,0,4.66-11.771,35.839,35.839,0,0,0,.435-11.544A84.19,84.19,0,0,1,575.972,419.38Z" transform="translate(151.946 911.33)" fill="#f7f7f7"/><path d="M530.255,388.895a27.439,27.439,0,0,1-9.389,20.5c-.939.852-1.965,1.791-3.025,2.8-7.337,6.937-11.006,10.4-12.883,14.691a20.624,20.624,0,0,0-1.6,8.38,32.761,32.761,0,0,0,2.573,12.049A28.4,28.4,0,0,1,492.509,436.1l-.261-.417a28.325,28.325,0,0,1-3.964-15.283,25.386,25.386,0,0,1,2.66-12.692c2.208-4.294,5.251-6.955,9.2-10.414,1.3-1.13,2.538-2.139,3.686-3.008a15.694,15.694,0,0,0,6.19-11.475l.017-.122a23.658,23.658,0,0,0-.313-5.685,14.312,14.312,0,0,1,2.138,2.956,14.72,14.72,0,0,1,1.513,4.26,38.356,38.356,0,0,0,.452-29.957,102.9,102.9,0,0,1,10.5,16.569c3.547,7.041,5.529,11.058,5.877,16.621C530.22,387.938,530.238,388.425,530.255,388.895Z" transform="translate(153.286 914.702)" fill="#f7f7f7"/><path d="M502.451,473.944a56.664,56.664,0,0,1,1.622-56.552,51.885,51.885,0,0,1,18.638-18.449,38.592,38.592,0,0,0,10.7-8.937,49.629,49.629,0,0,0,11-27.748,46.809,46.809,0,0,0-11.757-36.485,54.869,54.869,0,0,1-1.419,16.621,52.144,52.144,0,0,0-23.513-45.809,47.419,47.419,0,0,1,.2,45,27.995,27.995,0,0,0-7.906-9.123,48.541,48.541,0,0,1,1.217,12.567l-.007.179a27.925,27.925,0,0,1-9.359,19.542,87.353,87.353,0,0,0-25.7,41.494c-.948,3.455-6.445,24.909,6.688,45.2A56.143,56.143,0,0,0,502.451,473.944Z" transform="translate(135.528 872.101)" fill="#f7f7f7"/></g></g></svg>