<svg xmlns="http://www.w3.org/2000/svg" width="276.944" height="276.944" viewBox="0 0 276.944 276.944"><g transform="translate(0)"><rect width="195.829" height="195.829" rx="30" transform="translate(0 138.472) rotate(-45)" fill="#d60011"/><rect width="167.952" height="167.952" rx="23" transform="translate(19.712 138.472) rotate(-45)" fill="none" stroke="#fff" stroke-width="2"/></g><g transform="translate(228.107 122.998)"><path d="M52.488,149.346c0-2.274,6.176-2.274,6.176-4.546s-6.176-2.272-6.176-4.545,6.176-2.271,6.176-4.544-6.176-2.272-6.176-4.545,6.176-2.272,6.176-4.545-6.176-2.277-6.176-4.553,6.176-2.277,6.176-4.554" transform="translate(-52.488 -117.516)" fill="none" stroke="#fff" stroke-miterlimit="10" stroke-width="0.781"/></g><g transform="translate(214.024 108.917)"><path d="M40.025,136.882c0-2.272,6.176-2.272,6.176-4.545s-6.176-2.272-6.176-4.545,6.176-2.271,6.176-4.544-6.176-2.272-6.176-4.544,6.176-2.274,6.176-4.546-6.176-2.277-6.176-4.553,6.176-2.277,6.176-4.553" transform="translate(-40.025 -105.054)" fill="none" stroke="#fff" stroke-miterlimit="10" stroke-width="0.781"/></g></svg>