<svg xmlns="http://www.w3.org/2000/svg" width="163.078" height="163.078" viewBox="0 0 163.078 163.078"><g transform="translate(0)"><rect width="115.313" height="115.313" rx="30" transform="translate(0 81.539) rotate(-45)" fill="#ee7a00"/><rect width="98.898" height="98.898" rx="23" transform="translate(11.607 81.539) rotate(-45)" fill="none" stroke="#fff" stroke-width="2"/></g><g transform="translate(134.32 72.427)"><path d="M52.488,136.259c0-1.339,3.637-1.339,3.637-2.677s-3.637-1.338-3.637-2.676,3.637-1.337,3.637-2.676-3.637-1.338-3.637-2.676,3.637-1.338,3.637-2.676-3.637-1.341-3.637-2.681,3.637-1.341,3.637-2.681" transform="translate(-52.488 -117.516)" fill="none" stroke="#fff" stroke-miterlimit="10" stroke-width="0.781"/></g><g transform="translate(126.027 64.135)"><path d="M40.025,123.8c0-1.338,3.637-1.338,3.637-2.676s-3.637-1.338-3.637-2.676,3.637-1.337,3.637-2.676-3.637-1.338-3.637-2.676,3.637-1.339,3.637-2.677-3.637-1.341-3.637-2.681,3.637-1.341,3.637-2.681" transform="translate(-40.025 -105.054)" fill="none" stroke="#fff" stroke-miterlimit="10" stroke-width="0.781"/></g></svg>