<svg xmlns="http://www.w3.org/2000/svg" width="406.388" height="145.14" viewBox="0 0 406.388 145.14"><path d="M243.612,123.259a3.628,3.628,0,1,0,3.629-3.629A3.629,3.629,0,0,0,243.612,123.259Z" transform="translate(104.72 -119.63)" fill="#d60011"/><circle cx="3.628" cy="3.628" r="3.628" transform="translate(309.629 0)" fill="#d60011"/><circle cx="3.628" cy="3.628" r="3.628" transform="translate(270.926 0)" fill="#d60011"/><circle cx="3.628" cy="3.628" r="3.628" transform="translate(232.222 0)" fill="#d60011"/><path d="M166.024,123.259a3.627,3.627,0,1,0,3.627-3.629A3.628,3.628,0,0,0,166.024,123.259Z" transform="translate(27.495 -119.63)" fill="#d60011"/><circle cx="3.628" cy="3.628" r="3.628" transform="translate(154.815 0)" fill="#d60011"/><circle cx="3.628" cy="3.628" r="3.628" transform="translate(116.111 0)" fill="#d60011"/><circle cx="3.628" cy="3.628" r="3.628" transform="translate(77.407 0)" fill="#d60011"/><circle cx="3.628" cy="3.628" r="3.628" transform="translate(38.704 0)" fill="#d60011"/><circle cx="3.628" cy="3.628" r="3.628" transform="translate(0 0)" fill="#d60011"/><g transform="translate(50.799 45.96)"><circle cx="3.628" cy="3.628" r="3.628" transform="translate(348.333 0.001)" fill="#d60011"/><path d="M249.674,146.293a3.628,3.628,0,1,0,3.628-3.63A3.628,3.628,0,0,0,249.674,146.293Z" transform="translate(59.955 -142.664)" fill="#d60011"/><circle cx="3.628" cy="3.628" r="3.628" transform="translate(270.925 0.001)" fill="#d60011"/><circle cx="3.628" cy="3.628" r="3.628" transform="translate(232.222 0.001)" fill="#d60011"/><circle cx="3.628" cy="3.628" r="3.628" transform="translate(193.518 0.001)" fill="#d60011"/><path d="M172.085,146.293a3.628,3.628,0,1,0,3.629-3.63A3.628,3.628,0,0,0,172.085,146.293Z" transform="translate(-17.271 -142.664)" fill="#d60011"/><circle cx="3.628" cy="3.628" r="3.628" transform="translate(116.111 0.001)" fill="#d60011"/><circle cx="3.628" cy="3.628" r="3.628" transform="translate(77.407 0.001)" fill="#d60011"/><circle cx="3.628" cy="3.628" r="3.628" transform="translate(38.703 0.001)" fill="#d60011"/><circle cx="3.628" cy="3.628" r="3.628" transform="translate(0 0.001)" fill="#d60011"/></g><g transform="translate(0 91.922)"><path d="M243.612,169.327a3.628,3.628,0,1,0,3.629-3.627A3.631,3.631,0,0,0,243.612,169.327Z" transform="translate(104.72 -165.698)" fill="#d60011"/><circle cx="3.628" cy="3.628" r="3.628" transform="translate(309.629)" fill="#d60011"/><circle cx="3.628" cy="3.628" r="3.628" transform="translate(270.926)" fill="#d60011"/><circle cx="3.628" cy="3.628" r="3.628" transform="translate(232.222)" fill="#d60011"/><path d="M166.024,169.327a3.627,3.627,0,1,0,3.627-3.627A3.629,3.629,0,0,0,166.024,169.327Z" transform="translate(27.495 -165.698)" fill="#d60011"/><circle cx="3.628" cy="3.628" r="3.628" transform="translate(154.815)" fill="#d60011"/><circle cx="3.628" cy="3.628" r="3.628" transform="translate(116.111)" fill="#d60011"/><circle cx="3.628" cy="3.628" r="3.628" transform="translate(77.407)" fill="#d60011"/><circle cx="3.628" cy="3.628" r="3.628" transform="translate(38.704)" fill="#d60011"/><circle cx="3.628" cy="3.628" r="3.628" fill="#d60011"/></g><g transform="translate(50.799 137.882)"><circle cx="3.628" cy="3.628" r="3.628" transform="translate(348.333)" fill="#d60011"/><path d="M249.674,192.361a3.628,3.628,0,1,0,3.628-3.627A3.628,3.628,0,0,0,249.674,192.361Z" transform="translate(59.955 -188.733)" fill="#d60011"/><circle cx="3.628" cy="3.628" r="3.628" transform="translate(270.925)" fill="#d60011"/><circle cx="3.628" cy="3.628" r="3.628" transform="translate(232.222)" fill="#d60011"/><circle cx="3.628" cy="3.628" r="3.628" transform="translate(193.518)" fill="#d60011"/><path d="M172.085,192.361a3.628,3.628,0,1,0,3.629-3.627A3.628,3.628,0,0,0,172.085,192.361Z" transform="translate(-17.271 -188.733)" fill="#d60011"/><circle cx="3.628" cy="3.628" r="3.628" transform="translate(116.111)" fill="#d60011"/><circle cx="3.628" cy="3.628" r="3.628" transform="translate(77.407)" fill="#d60011"/><circle cx="3.628" cy="3.628" r="3.628" transform="translate(38.703)" fill="#d60011"/><circle cx="3.628" cy="3.628" r="3.628" fill="#d60011"/></g></svg>