<svg xmlns="http://www.w3.org/2000/svg" width="78.728" height="125.331" viewBox="0 0 78.728 125.331"><g transform="translate(-585.103 -1168.686)"><path d="M534.384,389.008a38.553,38.553,0,0,1-6.266,18.321c-10.017,15.164-26.6,17.527-29.065,17.833-2.315.086-20.636.507-33.466-14.418-14.245-16.561-8.878-37.092-8.429-38.708.325,2.143,2.43,14.8,14.044,22.588a30.494,30.494,0,0,0,13.92,5.013c6.362,9.1,17.814,14.169,28.625,11.681A27.1,27.1,0,0,0,534.384,389.008Z" transform="translate(129.305 868.834)" fill="#f0f0f0"/><path d="M535.711,388.041a27.1,27.1,0,0,1-20.636,22.31c-10.811,2.487-22.263-2.583-28.625-11.681,1.148.115,2.258.172,3.339.182a38.041,38.041,0,0,0,5.97-.459,35.981,35.981,0,0,0,8.285-2.286c2.688-1.167,14.494-6.716,18.56-20.4,3.98-13.375-2.478-24.291-3.54-26.013a33.763,33.763,0,0,1,10.753,30.653,20.031,20.031,0,0,0,2.564-6.477,19.72,19.72,0,0,0,.239-6.353A46.326,46.326,0,0,1,535.711,388.041Z" transform="translate(127.979 869.801)" fill="#f0f0f0"/><path d="M511.371,373.319A15.1,15.1,0,0,1,506.2,384.6c-.517.469-1.081.985-1.665,1.54-4.037,3.817-6.056,5.721-7.089,8.084a11.349,11.349,0,0,0-.88,4.611,18.028,18.028,0,0,0,1.416,6.63,15.627,15.627,0,0,1-7.386-6.171l-.143-.23a15.586,15.586,0,0,1-2.181-8.409,13.969,13.969,0,0,1,1.464-6.984c1.215-2.363,2.889-3.827,5.061-5.731.718-.622,1.4-1.177,2.028-1.655a8.636,8.636,0,0,0,3.406-6.314l.01-.067a13.019,13.019,0,0,0-.172-3.128,7.876,7.876,0,0,1,1.177,1.626,8.1,8.1,0,0,1,.832,2.344,21.106,21.106,0,0,0,.249-16.484,56.623,56.623,0,0,1,5.779,9.117c1.952,3.875,3.042,6.085,3.234,9.146C511.351,372.793,511.361,373.06,511.371,373.319Z" transform="translate(127.899 869.604)" fill="#f0f0f0"/><path d="M485.258,394.18a31.18,31.18,0,0,1,.893-31.119,28.551,28.551,0,0,1,10.256-10.152,21.236,21.236,0,0,0,5.889-4.918,27.31,27.31,0,0,0,6.05-15.269,25.757,25.757,0,0,0-6.469-20.077,30.191,30.191,0,0,1-.781,9.146,28.693,28.693,0,0,0-12.939-25.207,26.093,26.093,0,0,1,.112,24.762,15.4,15.4,0,0,0-4.35-5.02,26.712,26.712,0,0,1,.67,6.915l0,.1a15.366,15.366,0,0,1-5.15,10.753,48.068,48.068,0,0,0-14.142,22.833c-.521,1.9-3.547,13.707,3.68,24.873A30.893,30.893,0,0,0,485.258,394.18Z" transform="translate(128.94 872.101)" fill="#f0f0f0"/></g></svg>