<svg xmlns="http://www.w3.org/2000/svg" xmlns:xlink="http://www.w3.org/1999/xlink" width="187.319" height="187.319" viewBox="0 0 187.319 187.319"><defs><clipPath id="a"><rect width="132.454" height="132.454" rx="30" transform="translate(0 93.659) rotate(-45)" fill="#d60011"/></clipPath></defs><g transform="translate(-116 -3702.999)"><g transform="translate(-570.781 2317.071)"><rect width="132.454" height="132.454" rx="30" transform="translate(686.781 1479.588) rotate(-45)" fill="#fff" opacity="0.99"/><rect width="113.599" height="113.599" rx="23" transform="translate(700.114 1479.588) rotate(-45)" fill="none" stroke="#d60011" stroke-width="2"/><g transform="translate(841.067 1469.122)"><path d="M52.488,139.045c0-1.538,4.178-1.538,4.178-3.075s-4.178-1.537-4.178-3.074,4.178-1.536,4.178-3.073-4.178-1.537-4.178-3.074,4.178-1.537,4.178-3.074-4.178-1.54-4.178-3.079,4.178-1.54,4.178-3.08" transform="translate(-52.488 -117.516)" fill="none" stroke="#fff" stroke-miterlimit="10" stroke-width="0.781"/></g><g transform="translate(831.542 1459.597)"><path d="M40.025,126.582c0-1.537,4.178-1.537,4.178-3.074s-4.178-1.537-4.178-3.074S44.2,118.9,44.2,117.361s-4.178-1.537-4.178-3.073,4.178-1.538,4.178-3.075-4.178-1.54-4.178-3.079,4.178-1.54,4.178-3.079" transform="translate(-40.025 -105.054)" fill="none" stroke="#fff" stroke-miterlimit="10" stroke-width="0.781"/></g><g transform="translate(686.781 1385.929)" clip-path="url(#a)"><g transform="translate(26.115 61.45)" opacity="0.2"><path d="M531.128,388.3a36.955,36.955,0,0,1-6.007,17.562c-9.6,14.536-25.5,16.8-27.861,17.094-2.219.083-19.781.486-32.079-13.82-13.655-15.875-8.51-35.555-8.079-37.1.312,2.054,2.329,14.187,13.463,21.652a29.231,29.231,0,0,0,13.343,4.8c6.1,8.721,17.076,13.582,27.439,11.2A25.981,25.981,0,0,0,531.128,388.3Z" transform="translate(-455.798 -302.842)" fill="#d60011"/><path d="M533.67,386.452a25.981,25.981,0,0,1-19.781,21.386c-10.363,2.384-21.34-2.476-27.439-11.2,1.1.11,2.164.165,3.2.174a36.464,36.464,0,0,0,5.723-.44,34.49,34.49,0,0,0,7.942-2.192c2.577-1.119,13.894-6.438,17.791-19.552,3.815-12.821-2.375-23.284-3.393-24.935a32.365,32.365,0,0,1,10.308,29.383,19.2,19.2,0,0,0,2.458-6.209,18.9,18.9,0,0,0,.229-6.089,44.405,44.405,0,0,1,2.962,19.674Z" transform="translate(-458.339 -300.989)" fill="#d60011"/><path d="M510.413,372.529a14.473,14.473,0,0,1-4.952,10.812c-.5.449-1.036.945-1.6,1.477-3.87,3.659-5.8,5.484-6.8,7.749a10.878,10.878,0,0,0-.844,4.42,17.281,17.281,0,0,0,1.357,6.355,14.98,14.98,0,0,1-7.08-5.915l-.138-.22a14.941,14.941,0,0,1-2.091-8.061,13.391,13.391,0,0,1,1.4-6.695c1.165-2.265,2.77-3.668,4.851-5.493.688-.6,1.339-1.128,1.944-1.586a8.278,8.278,0,0,0,3.265-6.053l.009-.064a12.473,12.473,0,0,0-.165-3,7.55,7.55,0,0,1,1.128,1.559,7.764,7.764,0,0,1,.8,2.247,20.231,20.231,0,0,0,.238-15.8,54.277,54.277,0,0,1,5.539,8.74c1.871,3.714,2.916,5.833,3.1,8.767C510.395,372.025,510.4,372.282,510.413,372.529Z" transform="translate(-458.49 -301.368)" fill="#d60011"/><path d="M484.387,390.137a29.889,29.889,0,0,1,.856-29.83,27.368,27.368,0,0,1,9.831-9.731,20.355,20.355,0,0,0,5.645-4.714,26.177,26.177,0,0,0,5.8-14.636,24.69,24.69,0,0,0-6.2-19.245,28.943,28.943,0,0,1-.748,8.767,27.5,27.5,0,0,0-12.4-24.163,25.012,25.012,0,0,1,.107,23.736,14.766,14.766,0,0,0-4.17-4.812,25.608,25.608,0,0,1,.642,6.629v.094a14.73,14.73,0,0,1-4.937,10.308,46.076,46.076,0,0,0-13.556,21.887c-.5,1.822-3.4,13.139,3.528,23.842a29.614,29.614,0,0,0,15.6,11.868Z" transform="translate(-456.497 -296.585)" fill="#d60011"/></g></g></g><path d="M15.078,29.183,5.084,19.189a2,2,0,0,1,0-2.827l9.993-9.993A2,2,0,1,1,17.9,9.2l-6.581,6.581H30.481a2,2,0,1,1,0,4H11.323L17.9,26.356a2,2,0,0,1-2.827,2.826Z" transform="translate(227.217 3778.691) rotate(90)" fill="#d60011"/></g></svg>